<?xml version="1.0" encoding="UTF-8"?>
<svg id="Layer_1" xmlns="http://www.w3.org/2000/svg" version="1.1" viewBox="0 0 110 135">
  <!-- Generator: Adobe Illustrator 29.8.3, SVG Export Plug-In . SVG Version: 2.1.1 Build 3)  -->
  <path d="M91.96,62.52l.17-6.32,1.91-1.33c.19-.13.29-.35.27-.57-.02-.23-.16-.42-.37-.52l-4.37-1.99,2.7-1.84c.17-.12.27-.31.27-.52s-.1-.4-.27-.52l-1.89-1.29.17-6.32,1.91-1.33c.19-.13.29-.35.27-.57-.02-.23-.16-.42-.37-.52l-28.96-13.19c-.2-.09-.43-.07-.62.05l-31.07,21.17c-.07.04-.12.1-.17.16-1.61,2.19-1.61,5.59-.78,7.82.43,1.16,1.05,1.9,1.75,2.11l1.95,1.02-17.25,11.67c-.07.04-.12.1-.17.16-1.61,2.19-1.61,5.59-.78,7.82.43,1.16,1.05,1.9,1.75,2.11l27.64,14.5c.09.05.19.07.29.07.12,0,.25-.04.36-.11l13.2-9.03,2.23,1.17c.09.05.19.07.29.07.12,0,.25-.04.36-.11l31.47-21.52c.17-.12.27-.31.27-.52s-.1-.4-.27-.52l-1.89-1.29h0ZM90.69,62.5l-29.3,19.74-25.57-13.27c-.37-.63-.7-2.18-.4-3.48.09-.4.29-.89.65-1.21l25.39,12.94c.21.11.46.09.65-.05l28.73-20.08-.14,5.4h0ZM92.4,54.47l-30.71,21.46-26.83-13.67,3.33-2.27,21.94,11.51c.09.05.19.07.29.07.12,0,.25-.04.36-.11l27.56-18.84,4.05,1.85h0ZM89.11,47.6l-29.3,19.74-25.66-13.31c-.39-.65-.61-2.14-.35-3.32.1-.43.31-.96.7-1.31l25.37,12.93c.21.11.46.09.65-.05l28.73-20.08-.14,5.4h0ZM63.18,26.98l27.63,12.59-30.71,21.46-26.83-13.67,29.9-20.38h0ZM32.87,55.8c-.23-.05-.62-.5-.94-1.34-.66-1.77-.72-4.37.33-6.2l1.07.54c-.35.43-.62.96-.77,1.62-.34,1.53-.06,3.53.64,4.46.06.08.13.14.21.18l26.14,13.56c.09.05.19.07.29.07.12,0,.25-.04.35-.11l29.52-19.89,1.05.72-30.39,20.78-27.36-14.35s-.1-.04-.15-.05h0ZM35.72,58.69l1.21.63-3.64,2.48c-.07.04-.12.1-.17.16-1.61,2.19-1.61,5.59-.78,7.82.43,1.16,1.05,1.9,1.75,2.11l16.32,8.56-4.8,3.36-26.82-13.67,16.93-11.46h0ZM19.36,73.4c.09-.4.28-.89.64-1.21l25.36,12.93c.21.11.46.09.65-.05l5.64-3.95,3.94,2.07-10.3,6.94-25.54-13.25c-.38-.63-.7-2.19-.41-3.49h0ZM45.89,93.01l-27.36-14.35s-.1-.04-.15-.05c-.23-.05-.62-.5-.94-1.34-.66-1.77-.72-4.37.33-6.2l1.07.55c-.32.41-.57.91-.71,1.53-.35,1.54-.03,3.65.7,4.63.06.08.13.14.21.18l26.02,13.5c.09.05.19.07.29.07.12,0,.25-.04.35-.11l11.18-7.53,1.35.71-12.34,8.43h0ZM61.98,85.11l-27.36-14.35s-.1-.04-.15-.05c-.23-.05-.62-.5-.94-1.34-.66-1.77-.72-4.37.33-6.2l1.05.54c-.32.41-.57.91-.71,1.54-.35,1.56-.04,3.63.69,4.61.06.08.13.14.21.18l26.05,13.52c.09.05.19.07.29.07.12,0,.25-.04.35-.11l29.52-19.89,1.05.72-30.39,20.78h0Z"/>
</svg>