<?xml version="1.0" encoding="UTF-8"?>
<svg id="Layer_1" xmlns="http://www.w3.org/2000/svg" version="1.1" viewBox="0 0 110 135">
  <!-- Generator: Adobe Illustrator 29.8.3, SVG Export Plug-In . SVG Version: 2.1.1 Build 3)  -->
  <path d="M24.35,87.12h61.3c3.5,0,6.35-2.85,6.35-6.35v-41.55c0-3.5-2.85-6.35-6.35-6.35H24.35c-3.5,0-6.35,2.85-6.35,6.35v41.55c0,3.5,2.85,6.35,6.35,6.35h0ZM20,39.23c0-2.4,1.95-4.35,4.35-4.35h61.3c2.39,0,4.35,1.95,4.35,4.35v41.55c0,2.39-1.95,4.35-4.35,4.35H24.35c-2.4,0-4.35-1.95-4.35-4.35v-41.55ZM28.94,57.68h26.59c1.9,0,3.44-1.54,3.44-3.44v-11.99c0-1.9-1.55-3.44-3.45-3.44h-26.59c-1.9,0-3.44,1.54-3.44,3.44v11.99c0,1.89,1.55,3.44,3.45,3.44h0ZM56.97,42.25v11.99c0,.79-.64,1.44-1.44,1.44h-12.32v-14.87h12.32c.79,0,1.44.64,1.44,1.44h0ZM27.5,42.25c0-.79.64-1.44,1.44-1.44h12.27v14.87h-12.27c-.79,0-1.44-.64-1.44-1.44v-11.99ZM67.75,53.43h12.77c2.24,0,4.06-1.82,4.06-4.06v-5.97c0-2.24-1.82-4.06-4.06-4.06h-12.77c-2.24,0-4.06,1.82-4.06,4.05v5.97c0,2.24,1.82,4.06,4.06,4.06ZM65.69,43.4c0-1.14.93-2.06,2.06-2.06h12.77c1.14,0,2.06.93,2.06,2.06v5.97c0,1.14-.93,2.06-2.06,2.06h-12.77c-1.14,0-2.06-.92-2.06-2.05v-5.97ZM29.96,70.61c2.49,0,4.52-2.03,4.52-4.52s-2.03-4.52-4.52-4.52-4.52,2.03-4.52,4.52,2.03,4.52,4.52,4.52ZM29.96,63.57c1.39,0,2.52,1.13,2.52,2.52s-1.13,2.52-2.52,2.52-2.52-1.13-2.52-2.52,1.13-2.52,2.52-2.52ZM41.84,61.57c-2.49,0-4.52,2.03-4.52,4.52s2.03,4.52,4.52,4.52,4.52-2.03,4.52-4.52-2.03-4.52-4.52-4.52ZM41.84,68.61c-1.39,0-2.52-1.13-2.52-2.52s1.13-2.52,2.52-2.52,2.52,1.13,2.52,2.52-1.13,2.52-2.52,2.52ZM54.52,61.57c-2.49,0-4.52,2.03-4.52,4.52s2.03,4.52,4.52,4.52,4.52-2.03,4.52-4.52-2.03-4.52-4.52-4.52ZM54.52,68.61c-1.39,0-2.52-1.13-2.52-2.52s1.13-2.52,2.52-2.52,2.52,1.13,2.52,2.52-1.13,2.52-2.52,2.52ZM29.96,81.2c2.49,0,4.52-2.03,4.52-4.52s-2.03-4.52-4.52-4.52-4.52,2.03-4.52,4.52,2.03,4.52,4.52,4.52ZM29.96,74.16c1.39,0,2.52,1.13,2.52,2.52s-1.13,2.52-2.52,2.52-2.52-1.13-2.52-2.52,1.13-2.52,2.52-2.52ZM41.84,72.16c-2.49,0-4.52,2.03-4.52,4.52s2.03,4.52,4.52,4.52,4.52-2.03,4.52-4.52-2.03-4.52-4.52-4.52ZM41.84,79.2c-1.39,0-2.52-1.13-2.52-2.52s1.13-2.52,2.52-2.52,2.52,1.13,2.52,2.52-1.13,2.52-2.52,2.52ZM54.52,72.16c-2.49,0-4.52,2.03-4.52,4.52s2.03,4.52,4.52,4.52,4.52-2.03,4.52-4.52-2.03-4.52-4.52-4.52ZM54.52,79.2c-1.39,0-2.52-1.13-2.52-2.52s1.13-2.52,2.52-2.52,2.52,1.13,2.52,2.52-1.13,2.52-2.52,2.52ZM74.13,61.95c-5.2,0-9.43,4.23-9.43,9.43s4.23,9.43,9.43,9.43,9.43-4.23,9.43-9.43-4.23-9.43-9.43-9.43ZM74.13,78.81c-4.1,0-7.43-3.33-7.43-7.43s3.33-7.43,7.43-7.43,7.43,3.33,7.43,7.43-3.33,7.43-7.43,7.43ZM74.13,65.15c-3.43,0-6.23,2.8-6.23,6.23s2.8,6.23,6.23,6.23,6.23-2.8,6.23-6.23-2.79-6.23-6.23-6.23ZM74.13,75.61c-2.33,0-4.23-1.9-4.23-4.23s1.9-4.23,4.23-4.23,4.23,1.9,4.23,4.23-1.9,4.23-4.23,4.23ZM47.79,51.8c0,1.34,1.09,2.43,2.43,2.43s2.43-1.09,2.43-2.43c0-.97-.58-1.81-1.41-2.2v-5c0-.55-.45-1-1-1s-1,.45-1,1v4.98c-.85.38-1.45,1.23-1.45,2.22h0ZM50.22,52.23c-.24,0-.43-.19-.43-.43s.19-.43.43-.43.43.19.43.43-.19.43-.43.43ZM34.65,54.23c1.34,0,2.43-1.09,2.43-2.43,0-.98-.58-1.81-1.41-2.2v-5c0-.55-.45-1-1-1s-1,.45-1,1v4.98c-.85.38-1.45,1.23-1.45,2.22,0,1.34,1.09,2.43,2.43,2.43h0ZM34.65,52.23c-.24,0-.43-.19-.43-.43s.19-.43.43-.43.43.19.43.43-.19.43-.43.43Z"/>
</svg>