<?xml version="1.0" encoding="UTF-8"?>
<svg id="Layer_1" xmlns="http://www.w3.org/2000/svg" version="1.1" viewBox="0 0 110 135">
  <!-- Dashboard icon with grid layout -->
  <path d="M24,28h62c3.31,0,6,2.69,6,6v67c0,3.31-2.69,6-6,6H24c-3.31,0-6-2.69-6-6V34c0-3.31,2.69-6,6-6h0ZM24,30c-2.21,0-4,1.79-4,4v67c0,2.21,1.79,4,4,4h62c2.21,0,4-1.79,4-4V34c0-2.21-1.79-4-4-4H24ZM29,40h23c2.21,0,4,1.79,4,4v18c0,2.21-1.79,4-4,4h-23c-2.21,0-4-1.79-4-4v-18c0-2.21,1.79-4,4-4h0ZM29,42c-1.1,0-2,.9-2,2v18c0,1.1.9,2,2,2h23c1.1,0,2-.9,2-2v-18c0-1.1-.9-2-2-2h-23ZM58,40h23c2.21,0,4,1.79,4,4v18c0,2.21-1.79,4-4,4h-23c-2.21,0-4-1.79-4-4v-18c0-2.21,1.79-4,4-4h0ZM58,42c-1.1,0-2,.9-2,2v18c0,1.1.9,2,2,2h23c1.1,0,2-.9,2-2v-18c0-1.1-.9-2-2-2h-23ZM29,73h23c2.21,0,4,1.79,4,4v18c0,2.21-1.79,4-4,4h-23c-2.21,0-4-1.79-4-4v-18c0-2.21,1.79-4,4-4h0ZM29,75c-1.1,0-2,.9-2,2v18c0,1.1.9,2,2,2h23c1.1,0,2-.9,2-2v-18c0-1.1-.9-2-2-2h-23ZM58,73h23c2.21,0,4,1.79,4,4v18c0,2.21-1.79,4-4,4h-23c-2.21,0-4-1.79-4-4v-18c0-2.21,1.79-4,4-4h0ZM58,75c-1.1,0-2,.9-2,2v18c0,1.1.9,2,2,2h23c1.1,0,2-.9,2-2v-18c0-1.1-.9-2-2-2h-23Z"/>
</svg>
