<?xml version="1.0" encoding="UTF-8"?>
<svg id="Layer_1" xmlns="http://www.w3.org/2000/svg" version="1.1" viewBox="0 0 110 135">
  <!-- Generator: Adobe Illustrator 29.8.3, SVG Export Plug-In . SVG Version: 2.1.1 Build 3)  -->
  <path d="M39.11,13.78c-.21.01-.41.07-.59.16-.06.03-.12.07-.18.11-.05.04-.11.08-.16.13-.05.05-.1.1-.14.15-.04.05-.09.11-.12.17,0,0,0,0,0,.02-.03.05-.06.11-.09.16,0,.02-.01.04-.02.06-.02.04-.03.09-.05.13,0,0,0,.01,0,.02l-2.97,11.57c-.1.38-.04.78.16,1.11.2.34.52.58.9.68.25.06.5.06.75,0,.46-.1,4.26-.86,8.32.15.12.03.24.06.36.09-1.39,2.11-2.49,4.44-3.25,6.91h-.96c-4.21,0-7.64,3.43-7.64,7.63s3.44,7.64,7.64,7.64h.86c.18.61.38,1.23.6,1.83-.09,0-.18,0-.26,0-12.1,0-22.36,8.03-25.72,19.04h-.96c-4.21,0-7.63,3.43-7.63,7.63s3.43,7.63,7.63,7.63h.85c3.24,11.2,13.59,19.41,25.83,19.41s22.59-8.21,25.82-19.41h.85c4.21,0,7.64-3.43,7.64-7.63s-3.44-7.63-7.64-7.63h-.96c-.15-.5-.32-.98-.49-1.47.09,0,.18,0,.27,0,12.24,0,22.59-8.2,25.83-19.4h.86c4.21,0,7.63-3.44,7.63-7.64s-3.43-7.63-7.63-7.63h-.96c-.75-2.48-1.86-4.8-3.25-6.91.12-.03.23-.06.35-.09,4.06-1.01,7.88-.25,8.34-.15.25.07.5.07.75,0,.39-.1.71-.35.91-.7,0-.01.02-.03.02-.04.02-.04.04-.08.06-.13.01-.02.02-.04.03-.07s.02-.05.02-.07c.01-.03.02-.05.03-.08.06-.26.05-.54-.04-.79l-2.94-11.47s0-.01,0-.02,0,0,0,0c-.02-.07-.04-.13-.06-.19-.22-.53-.73-.89-1.3-.91,0,0-4.84-.18-10.28,2.89-1.89,1.07-3.36,2.34-4.46,3.55-4.05-2.45-8.81-3.86-13.89-3.86s-9.82,1.41-13.88,3.86c-1.11-1.21-2.56-2.48-4.46-3.55-5.44-3.07-10.29-2.89-10.29-2.89h0ZM40.3,16.77c1.49.13,4.38.62,7.66,2.47,1.43.8,2.56,1.74,3.45,2.66-1.57,1.2-3,2.57-4.26,4.09-.49-.16-1-.32-1.52-.45-2.88-.71-5.61-.67-7.44-.49l2.12-8.28ZM95.18,16.77l2.13,8.28h0c-1.84-.18-4.56-.22-7.45.49-.52.13-1.02.28-1.51.45-1.27-1.51-2.7-2.88-4.26-4.08.88-.92,2.02-1.86,3.45-2.66,3.27-1.84,6.16-2.34,7.65-2.47h0ZM67.74,19.3c7.66,0,14.48,3.58,18.85,9.16h0c.06.1.13.19.21.27,1.23,1.62,2.27,3.41,3.06,5.31-.17,0-.34,0-.52,0-6.74,0-12.82-1.89-17.13-4.84-1.23-.84-2.31-1.77-3.23-2.75-.07-.1-.15-.2-.24-.28-.01,0-.02-.02-.04-.03-1.8-2.04-2.92-4.33-3.21-6.75.74-.07,1.49-.11,2.25-.11h0ZM62.58,19.86c.34,2.67,1.47,5.15,3.18,7.36-4.4,4.18-11.72,6.84-19.61,6.84-.18,0-.35,0-.53,0,.79-1.9,1.82-3.68,3.05-5.3h0c.09-.09.16-.18.23-.29,1.52-1.93,3.33-3.62,5.37-5.01h0c.07-.04.15-.09.21-.14.02-.02.04-.03.06-.05,0,0,0,0,0,0,2.41-1.59,5.12-2.76,8.04-3.4h0ZM67.75,29.39c.85.8,1.79,1.56,2.79,2.25,4.89,3.35,11.52,5.35,18.81,5.35.5,0,1-.02,1.5-.04.03.09.05.19.08.29h0s.01.05.02.07c.48,1.88.73,3.86.73,5.89,0,1.88-.21,3.7-.62,5.45h0c-.05.12-.07.25-.09.38-2.6,10.4-12,18.09-23.23,18.09-.53,0-1.05-.02-1.58-.05-3.95-7.66-11.49-13.19-20.38-14.35-.52-1.19-.93-2.42-1.25-3.68-.02-.13-.04-.26-.09-.38-.42-1.79-.64-3.61-.64-5.46,0-1.98.24-3.9.69-5.73h0c.07-.16.12-.33.13-.5,0,0,0-.01,0-.02.5.02,1.01.04,1.52.04,8.51,0,16.5-2.75,21.6-7.61h0ZM40.94,38.34h.37c-.29,1.58-.44,3.21-.44,4.87,0,1.52.13,3.03.38,4.52h-.19c-2.63,0-4.7-2.08-4.7-4.7s2-4.62,4.57-4.69h0ZM94.18,38.34h.25c2.63,0,4.69,2.06,4.69,4.69s-2.06,4.7-4.69,4.7h-.19c.25-1.47.38-2.98.38-4.52,0-1.66-.15-3.29-.44-4.87ZM58.02,42.99c-1.03.03-1.87.88-1.87,1.92s.87,1.92,1.92,1.92,1.92-.87,1.92-1.92-.87-1.92-1.92-1.92h-.05ZM77.37,42.99c-1.03.03-1.88.88-1.88,1.92s.87,1.92,1.93,1.92,1.92-.87,1.92-1.92-.86-1.92-1.92-1.92h-.05ZM42.26,55.44c9.53,0,17.74,5.54,21.6,13.57.03.09.07.17.12.25.41.88.77,1.8,1.07,2.74-.58.02-1.16.02-1.75.02-6.7,0-12.88-.62-17.78-2.02-4.83-1.38-8.33-3.48-10.03-6.25-.21-.44-.62-.75-1.1-.82-.39-.06-.78.03-1.1.26s-.53.58-.59.96c-.61,3.78-2.14,5.1-4.75,6-2.14.74-5.04.96-8.28,1.27,3.27-9.33,12.14-16.01,22.6-16.01h0ZM34.78,67.57c2.41,2.43,5.87,4.12,9.94,5.28,5.3,1.51,11.72,2.13,18.59,2.13.83,0,1.66-.01,2.49-.04.27,1.43.41,2.91.41,4.43,0,1.85-.21,3.66-.61,5.39h0c-.07.16-.12.33-.12.51-2.62,10.37-12.01,18.02-23.21,18.02s-20.62-7.68-23.23-18.09c-.02-.13-.04-.25-.09-.38-.41-1.75-.62-3.58-.62-5.45,0-1.67.17-3.3.5-4.88,3.61-.36,7.08-.49,10.09-1.53,2.52-.87,4.67-2.59,5.87-5.39h0ZM15.45,74.49h.37c-.29,1.58-.44,3.21-.44,4.88,0,1.54.13,3.05.38,4.52h-.19c-2.63,0-4.7-2.08-4.7-4.7s2.01-4.62,4.58-4.69h0ZM68.69,74.49h.25c2.63,0,4.7,2.06,4.7,4.69s-2.07,4.7-4.7,4.7h-.19c.25-1.47.38-2.98.38-4.52,0-1.66-.15-3.29-.44-4.88h0ZM32.54,78.8c-1.03.03-1.88.88-1.88,1.92s.87,1.92,1.93,1.92,1.92-.87,1.92-1.92-.86-1.92-1.92-1.92h-.05ZM51.88,78.8c-1.03.03-1.88.88-1.88,1.92s.87,1.92,1.93,1.92,1.92-.87,1.92-1.92-.86-1.92-1.92-1.92h-.05Z"/>
</svg>