<?xml version="1.0" encoding="UTF-8"?>
<svg id="Layer_1" xmlns="http://www.w3.org/2000/svg" version="1.1" viewBox="0 0 110 135">
  <!-- Generator: Adobe Illustrator 29.8.3, SVG Export Plug-In . SVG Version: 2.1.1 Build 3)  -->
  <path d="M78.3,31.9c-.5-.3-1.1-.2-1.5.1l-7.9,5-1.5-8c-.1-.6-.5-1-1.1-1.2-.5-.2-1.1,0-1.5.4l-4,4.4-2.5-6.5c-.2-.5-.7-.9-1.3-1-.6-.1-1.1.2-1.4.7l-2.3,3.6-3-5.9c-.3-.5-.8-.8-1.4-.8s-1.1.3-1.3.8l-1.5,3-2-3.6c-.3-.5-.8-.8-1.4-.8s-1.1.4-1.3.9l-10.4,23.61c-.1.2-.1.5-.1.7v44.5c0,.5.2.9.6,1.2,4.3,3.1,9.4,4.7,14.7,4.7h2.6c.1,0,.3,0,.4-.1h.1c.1,0,.3-.1.4-.2l28.8-21c.4-.3.6-.7.6-1.2v-42c0-.5-.3-1-.8-1.3h0ZM49.1,27.8l2.4,4.8-10.5,16.9h-.1c-.5-.1-1-.2-1.4-.4-.2-.1-.4-.1-.5-.2l10.1-21.1ZM43.1,27.2l1.6,2.9-8.6,17.7-.1-.1c-.6-.3-1.1-.6-1.7-.9l8.8-19.6ZM47.3,94.7h-1.1c-4.4,0-8.6-1.3-12.3-3.7v-41.1c.3.2.6.3.9.5.1,0,.2.1.3.1.4.2.7.3,1.1.5,0,0,.1,0,.1.1.7.3,1.4.6,2.3.8.9.3,1.9.5,2.9.7,1.4.3,2.7.4,4.1.4h1.7v41.7ZM45.4,49.6l-.4.5c-.3,0-.5,0-.8-.1l4-6.4,6.4-10.2,2.1-3.3,1.9,5.1-13.2,14.4ZM61.4,36.5l3.6-3.9,1.1,6.2-12.1,7.7-4.2,2.7,11.6-12.7ZM76.1,74.5l-25.8,18.7v-40.8l9.3-5.9,9-5.8,7.5-4.8v38.6Z"/>
</svg>