<?xml version="1.0" encoding="UTF-8"?>
<svg id="Layer_1" xmlns="http://www.w3.org/2000/svg" version="1.1" viewBox="0 0 110 135">
  <!-- Generator: Adobe Illustrator 29.8.3, SVG Export Plug-In . SVG Version: 2.1.1 Build 3)  -->
  <defs>
    <style>
      .st0 {
        fill-rule: evenodd;
      }
    </style>
  </defs>
  <path class="st0" d="M67.5,19.38H23.75c-2.49,0-4.87.99-6.63,2.75-1.76,1.76-2.75,4.14-2.75,6.63v62.5c0,2.49.99,4.87,2.75,6.63,1.76,1.76,4.14,2.75,6.63,2.75h43.75c1.73,0,3.12-1.4,3.12-3.12s-1.4-3.12-3.12-3.12H23.75c-.83,0-1.62-.33-2.21-.91-.59-.59-.91-1.38-.91-2.21V28.75c0-.83.33-1.62.91-2.21.59-.59,1.38-.91,2.21-.91h43.75c1.73,0,3.12-1.4,3.12-3.12s-1.4-3.12-3.12-3.12h0ZM73.75,53.75h-31.25c-1.73,0-3.12,2.8-3.12,6.25s1.4,6.25,3.12,6.25h31.25v9.38c0,1.26.76,2.4,1.93,2.89,1.17.48,2.51.21,3.41-.68l15.62-15.62c1.22-1.22,1.22-3.2,0-4.42l-15.62-15.62c-.89-.89-2.24-1.16-3.41-.68-1.17.48-1.93,1.62-1.93,2.89v9.38Z"/>
</svg>