<?xml version="1.0" encoding="UTF-8"?>
<svg id="Layer_1" xmlns="http://www.w3.org/2000/svg" version="1.1" viewBox="0 0 110 135">
  <!-- Generator: Adobe Illustrator 29.5.1, SVG Export Plug-In . SVG Version: 2.1.0 Build 141)  -->
  <defs>
    <style>
      .st0 {
        fill-rule: evenodd;
      }
    </style>
  </defs>
  <path class="st0" d="M67.5,19.4H23.8c-2.5,0-4.9,1-6.6,2.8-1.8,1.8-2.8,4.1-2.8,6.6v62.5c0,2.5,1,4.9,2.8,6.6,1.8,1.8,4.1,2.8,6.6,2.8h43.8c1.7,0,3.1-1.4,3.1-3.1s-1.4-3.1-3.1-3.1H23.8c-.8,0-1.6-.3-2.2-.9-.6-.6-.9-1.4-.9-2.2V28.8c0-.8.3-1.6.9-2.2.6-.6,1.4-.9,2.2-.9h43.8c1.7,0,3.1-1.4,3.1-3.1s-1.4-3.1-3.1-3.1h0ZM61.3,66.3h31.2c1.7,0,3.1-2.8,3.1-6.2s-1.4-6.2-3.1-6.2h-31.2v-9.4c0-1.3-.8-2.4-1.9-2.9-1.2-.5-2.5-.2-3.4.7l-15.6,15.6c-1.2,1.2-1.2,3.2,0,4.4l15.6,15.6c.9.9,2.2,1.2,3.4.7,1.2-.5,1.9-1.6,1.9-2.9v-9.4h0Z"/>
</svg>