<?xml version="1.0" encoding="UTF-8"?>
<svg id="Layer_1" xmlns="http://www.w3.org/2000/svg" version="1.1" viewBox="0 0 104 123">
  <!-- Generator: Adobe Illustrator 29.5.1, SVG Export Plug-In . SVG Version: 2.1.0 Build 141)  -->
  <defs>
    <style>
      .st0 {
        fill: #fff;
      }
    </style>
  </defs>
  <path class="st0" d="M19.4,21.4v70.6l26.6-.5,3.6,7.1,6.2,4.6,7.1,2.1h8.2l5.2-2.5,4.6-4.2,2.2-4.5,1-6.8v-8.5l-3.2-5.9s-5.4-5-5.7-5.4-7.5-2.6-7.5-2.6v-29.3c-.1,0-15.2-14.2-15.2-14.2H19.4Z"/>
  <path d="M18.7,19.4c-1,0-1.8,1-1.8,2v70.9c0,1.1.9,2,2,2h25.5c3.5,8.3,11.5,14.2,20.9,14.2s22.7-10.5,22.7-23.3-7.6-20.4-17.8-22.7v-24.9c0-.5-.2-1.1-.6-1.5l-15.8-16.2c-.4-.4-.9-.6-1.4-.6H18.7ZM20.9,23.5h29.6v14.2c0,1.1.9,2,2,2h13.8v22.3c-.3,0-.7,0-1,0-2.4,0-4.6.4-6.8,1.1-.2,0-.4,0-.6,0h-30.3c-1,0-1.9,1.1-1.9,2.1,0,1.1,1,2,2.1,1.9h23.4c-1.8,1.4-3.3,3.2-4.6,5.1h-19c-1,0-1.9,1.1-1.9,2.1,0,1.1,1,2,2.1,1.9h16.6c-.7,1.6-1.1,3.3-1.5,5.1h-15.4c-1,0-1.9,1.1-1.9,2.1,0,1.1,1,2,2.1,1.9h14.8c0,1.7.2,3.4.6,5.1h-22.3V23.5h0ZM54.5,26.3l9.1,9.3h-9.1v-9.3ZM27.6,53.9c-1,0-1.9,1.1-1.9,2.1,0,1.1,1,2,2.1,1.9h31.6c1,0,2-1,2-2s-1-2-2-2h-31.8ZM65.3,66c10.4,0,18.8,8.6,18.8,19.3s-8.4,19.3-18.8,19.3-18.8-8.6-18.8-19.3,8.4-19.3,18.8-19.3ZM65.1,74.1c-1,.1-1.8,1.1-1.8,2.1v7.1h-7.1c-1,0-1.9,1.1-1.9,2.1,0,1.1,1,2,2.1,1.9h6.9v7.1c0,1.1.9,2.1,2,2.1s2-1,2-2.1v-7.1h6.9c1,0,2-1,2-2s-1-2-2-2h-6.9v-7.1c0-1.1-1.1-2.2-2.2-2.1Z"/>
</svg>