<?xml version="1.0" encoding="UTF-8"?>
<svg id="Layer_1" xmlns="http://www.w3.org/2000/svg" version="1.1" xmlns:cc="http://creativecommons.org/ns#" xmlns:dc="http://purl.org/dc/elements/1.1/" xmlns:inkscape="http://www.inkscape.org/namespaces/inkscape" xmlns:rdf="http://www.w3.org/1999/02/22-rdf-syntax-ns#" xmlns:sodipodi="http://sodipodi.sourceforge.net/DTD/sodipodi-0.dtd" xmlns:svg="http://www.w3.org/2000/svg" viewBox="0 0 100 125">
  <!-- Generator: Adobe Illustrator 29.8.3, SVG Export Plug-In . SVG Version: 2.1.1 Build 3)  -->
  <path d="M15.81,6c-.98.09-1.82,1.01-1.81,2v70c0,1.05.95,2,2,2h25.84c3.51,8.22,11.67,14,21.16,14,12.68,0,23-10.32,23-23,0-10.96-7.72-20.15-18-22.44v-24.56c0-.53-.22-1.06-.59-1.44L51.41,6.56c-.37-.36-.89-.57-1.41-.56H15.81ZM18,10h30v14c0,1.05.95,2,2,2h14v22.03c-.33-.01-.67-.03-1-.03-2.4,0-4.7.41-6.88,1.09-.19-.06-.39-.09-.59-.09h-30.72c-1.05.05-1.96,1.05-1.91,2.09.05,1.05,1.05,1.96,2.09,1.91h23.72c-1.79,1.43-3.35,3.11-4.66,5h-19.25c-1.05.05-1.96,1.05-1.91,2.09.05,1.05,1.05,1.96,2.09,1.91h16.84c-.68,1.58-1.16,3.26-1.47,5h-15.56c-1.05.05-1.96,1.05-1.91,2.09.05,1.05,1.05,1.96,2.09,1.91h15c0,1.72.2,3.39.56,5h-22.56V10h0ZM52,12.81l9.19,9.19h-9.19v-9.19ZM24.81,40c-1.05.05-1.96,1.05-1.91,2.09.05,1.05,1.05,1.96,2.09,1.91h32c1.06.01,2.03-.94,2.03-2s-.97-2.01-2.03-2H24.81ZM63,52c10.52,0,19,8.48,19,19s-8.48,19-19,19-19-8.48-19-19,8.48-19,19-19ZM62.78,59.97c-.98.11-1.8,1.04-1.78,2.03v7h-7.19c-1.05.05-1.96,1.05-1.91,2.09.05,1.05,1.05,1.96,2.09,1.91h7v7c-.01,1.06.94,2.03,2,2.03s2.01-.97,2-2.03v-7h7c1.06.02,2.03-.94,2.03-2s-.97-2.01-2.03-2h-7v-7c.02-1.13-1.09-2.16-2.22-2.03Z"/>
</svg>