<?xml version="1.0" encoding="UTF-8"?>
<svg id="Layer_1" xmlns="http://www.w3.org/2000/svg" version="1.1" xmlns:cc="http://creativecommons.org/ns#" xmlns:dc="http://purl.org/dc/elements/1.1/" xmlns:inkscape="http://www.inkscape.org/namespaces/inkscape" xmlns:rdf="http://www.w3.org/1999/02/22-rdf-syntax-ns#" xmlns:sodipodi="http://sodipodi.sourceforge.net/DTD/sodipodi-0.dtd" xmlns:svg="http://www.w3.org/2000/svg" viewBox="0 0 10.58 13.23">
  <!-- Generator: Adobe Illustrator 29.8.3, SVG Export Plug-In . SVG Version: 2.1.1 Build 3)  -->
  <defs>
    <style>
      .st0 {
        fill-rule: evenodd;
      }
    </style>
  </defs>
  <path class="st0" d="M3.88,1.88c-.19,0-.36.1-.46.22-.1.12-.15.24-.19.36l-.13.33h-1.56c-.41,0-.74.34-.74.74v4.43c0,.41.34.74.74.74h7.51c.41,0,.74-.34.74-.74V3.53c0-.41-.34-.74-.74-.74h-1.56l-.13-.33c-.04-.11-.1-.24-.2-.36-.1-.12-.27-.22-.46-.22h-2.82ZM3.86,2.41s.01,0,.02,0h2.82s.03,0,.05.03c.03.03.07.11.11.21l.19.5c.04.1.14.17.25.17h1.75c.12,0,.21.09.21.21v4.43c0,.12-.09.21-.21.21H1.54c-.12,0-.21-.09-.21-.21V3.53c0-.12.09-.21.21-.21h1.75c.11,0,.21-.07.25-.17l.19-.5c.04-.1.08-.17.1-.21.02-.02.02-.03.04-.03ZM5.29,3.66c-1.15,0-2.08.94-2.08,2.08,0,1.15.94,2.08,2.08,2.08s2.08-.93,2.08-2.08-.94-2.08-2.08-2.08ZM8.5,3.83c-.17,0-.3.14-.3.3,0,.17.13.3.3.3.17,0,.3-.13.3-.3,0,0,0,0,0,0,0-.17-.13-.3-.3-.3,0,0,0,0,0,0ZM5.29,4.19c.86,0,1.55.69,1.55,1.55s-.69,1.55-1.55,1.55-1.55-.69-1.55-1.55.69-1.55,1.55-1.55Z"/>
</svg>