<?xml version="1.0" encoding="UTF-8"?>
<svg id="Layer_1" xmlns="http://www.w3.org/2000/svg" version="1.1" viewBox="0 0 110 135">
  <!-- Generator: Adobe Illustrator 29.8.3, SVG Export Plug-In . SVG Version: 2.1.1 Build 3)  -->
  <path d="M40.94,38.2c-.33.06-.6.29-.73.59l-25.19,59.82c-.16.38-.07.81.21,1.09.19.19.45.29.71.29.13,0,.27-.02.39-.08l59.71-25.23c.3-.13.53-.4.59-.73.06-.33-.04-.66-.27-.9l-34.52-34.59c-.23-.23-.57-.34-.9-.27h0ZM58.08,57.57l6.06,19.98-10.1,4.27-12.33-40.64,16.36,16.4h0ZM42.09,86.87l-8.35-27.53,6.62-15.73,11.83,39-10.1,4.27ZM30.14,91.92l-4.24-13.98,6.62-15.73,7.71,25.43-10.1,4.27h0ZM24.69,80.83l3.6,11.87-10.46,4.42,6.86-16.29ZM65.99,76.77l-4.91-16.19,12.82,12.85-7.91,3.34Z"/>
  <path d="M63.66,33.69c-1.93-1.97-4.48-3.33-7.06-3.9-.6-2.48-1.91-4.91-3.8-6.77-4.29-4.38-11.79-3.93-17.83,1.05-.43.35-.49.98-.14,1.41.35.43.98.48,1.41.14,5.23-4.31,11.59-4.81,15.14-1.19,1.42,1.4,2.47,3.2,3.05,5.07-1.13-.05-2.25.06-3.29.36-2.54.72-4.45,2.83-4.86,5.37-.25,1.55.12,2.89,1.05,3.88.8.84,1.86,1.27,3.09,1.27.23,0,.47-.02.72-.05,2.54-.32,4.66-2.17,5.41-4.71.34-1.16.45-2.4.37-3.67,1.95.57,3.84,1.66,5.3,3.14,4.4,4.49,11.21,4.97,15.18,1.08.39-.39.4-1.02.02-1.41s-1.02-.4-1.41-.02c-3.19,3.12-8.73,2.65-12.35-1.05h0ZM54.65,35.06c-.51,1.75-2.01,3.07-3.73,3.29-.92.11-1.61-.09-2.11-.62-.51-.54-.68-1.25-.53-2.19.29-1.78,1.63-3.25,3.43-3.76.7-.2,1.44-.29,2.2-.29.32,0,.65.02.98.05.15,1.23.09,2.43-.23,3.52h0Z"/>
  <path d="M88.11,42.24c-.45-.33-1.07-.23-1.4.21s-.23,1.07.21,1.4c5.46,4,7.53,10.04,4.89,14.38-1,1.72-2.49,3.18-4.16,4.21-.23-1.11-.62-2.16-1.16-3.1-1.32-2.29-3.84-3.61-6.4-3.38-1.56.14-2.77.83-3.5,1.98-.73,1.16-.82,2.55-.25,4,.94,2.38,3.25,3.98,5.91,4.07,1.2.04,2.44-.16,3.64-.55-.07,2.03-.66,4.14-1.73,5.91-3.26,5.37-2.05,12.09,2.7,14.98.16.1.34.14.52.14.34,0,.67-.17.86-.48.29-.47.14-1.09-.34-1.38-3.81-2.32-4.72-7.8-2.03-12.23,1.43-2.36,2.12-5.16,2.03-7.8,2.26-1.2,4.28-3.07,5.62-5.36,3.18-5.23.89-12.39-5.43-17.02h0ZM82.34,64.02c-1.82-.06-3.47-1.19-4.11-2.8-.34-.86-.31-1.58.08-2.2.39-.62,1.05-.97,1.98-1.05.13-.01.27-.02.4-.02,1.65,0,3.22.91,4.09,2.41.52.89.85,1.92,1.02,3.03-1.15.45-2.31.67-3.46.64h0Z"/>
  <path d="M25.64,35.89c3.14,0,5.7-2.55,5.7-5.7s-2.55-5.7-5.7-5.7-5.7,2.55-5.7,5.7,2.55,5.7,5.7,5.7ZM25.64,26.49c2.04,0,3.7,1.66,3.7,3.7s-1.66,3.7-3.7,3.7-3.7-1.66-3.7-3.7,1.66-3.7,3.7-3.7Z"/>
  <path d="M70.56,93.13c0,3.14,2.55,5.7,5.7,5.7s5.7-2.55,5.7-5.7-2.55-5.7-5.7-5.7-5.7,2.55-5.7,5.7ZM79.96,93.13c0,2.04-1.66,3.7-3.7,3.7s-3.7-1.66-3.7-3.7,1.66-3.7,3.7-3.7,3.7,1.66,3.7,3.7Z"/>
  <path d="M70.16,47.74c0-3.14-2.55-5.7-5.7-5.7s-5.7,2.55-5.7,5.7,2.55,5.7,5.7,5.7,5.7-2.55,5.7-5.7ZM60.77,47.74c0-2.04,1.66-3.7,3.7-3.7s3.7,1.66,3.7,3.7-1.66,3.7-3.7,3.7-3.7-1.66-3.7-3.7Z"/>
  <path d="M79.39,20.94l-.45,4.88-3.74,3.16c-.27.22-.39.57-.34.91.05.34.28.63.59.77l4.5,1.93,1.85,4.53c.13.32.42.55.76.61.05,0,.11.02.16.02.29,0,.56-.12.75-.34l3.23-3.68,4.88-.36c.34-.02.65-.23.81-.54.16-.31.15-.68-.03-.97l-2.5-4.21,1.17-4.75c.08-.34-.02-.69-.26-.94-.24-.25-.6-.36-.93-.27l-4.78,1.08-4.16-2.58c-.29-.18-.66-.2-.97-.05-.31.16-.52.46-.55.8h.01ZM80.54,27.09c.2-.17.33-.41.35-.67l.34-3.67,3.14,1.94c.22.14.49.19.75.12l3.6-.81-.88,3.58c-.06.26-.02.52.11.75l1.89,3.17-3.68.27c-.26.02-.5.14-.68.34l-2.43,2.77-1.39-3.41c-.1-.24-.29-.44-.53-.54l-3.39-1.45,2.82-2.38h0Z"/>
  <path d="M15.13,43.85c-.2.28-.24.65-.1.97l1.92,4.5-1.79,4.55c-.12.32-.08.69.13.96.21.28.55.43.89.4l4.88-.43,3.78,3.11c.18.15.41.23.64.23.11,0,.22-.02.32-.05.33-.11.57-.38.65-.72l1.09-4.77,4.13-2.63c.29-.19.47-.51.46-.86,0-.35-.19-.66-.48-.84l-4.2-2.52-1.23-4.74c-.09-.34-.34-.6-.67-.7-.33-.1-.69-.03-.95.2l-3.69,3.21-4.89-.3c-.34-.02-.68.14-.88.42h0ZM21.19,45.75c.27.02.52-.07.72-.24l2.78-2.42.93,3.57c.07.25.23.47.45.61l3.16,1.89-3.11,1.98c-.22.14-.38.36-.44.62l-.82,3.59-2.85-2.34c-.18-.15-.41-.23-.64-.23-.03,0-.06,0-.09,0l-3.68.33,1.35-3.43c.09-.24.09-.52-.01-.76l-1.45-3.39,3.68.22h0Z"/>
</svg>