<?xml version="1.0" encoding="UTF-8"?>
<svg id="Layer_1" xmlns="http://www.w3.org/2000/svg" version="1.1" viewBox="0 0 110 135">
  <!-- Generator: Adobe Illustrator 29.8.3, SVG Export Plug-In . SVG Version: 2.1.1 Build 3)  -->
  <path d="M97.38,35.76c-3.75-2.55-9.66-5.6-17.38-6.53v-6.51c0-.83-.33-1.62-.91-2.21-1.78-1.78-8.05-5.95-15.52-3.93-4.18,1.12-6.95,3.6-8.73,5.99-1.99-2.39-5.1-4.9-9.84-6.01-9.62-2.27-16.7,3.52-17,3.77-.71.59-1.12,1.47-1.12,2.4v7.02c-6.29,1.3-11.15,3.91-14.25,6.01-.86.58-1.38,1.55-1.38,2.59v62.5c0,1.16.64,2.22,1.66,2.76.46.24.96.36,1.46.36.62,0,1.23-.18,1.76-.54,3.38-2.3,10.45-6.14,19.98-5.71,8.14.36,14.22,3.73,17.12,5.71.05.03.1.04.15.07.11.07.22.11.34.16.04.02.07.04.11.05.07.03.12.07.19.1.02,0,.03,0,.05,0,.1.03.21.04.31.05.07.01.12.05.18.06.12.02.24.02.36.02h.1s.06,0,.1,0c.12,0,.23,0,.35-.03.06,0,.11-.04.16-.05.1-.02.2-.03.29-.05.13-.04.24-.11.37-.17.11-.05.22-.09.32-.16.04-.02.09-.04.13-.06,2.9-1.98,8.99-5.35,17.12-5.71,9.52-.41,16.6,3.41,19.98,5.71.53.36,1.14.54,1.76.54.5,0,1-.12,1.46-.36,1.02-.54,1.66-1.61,1.66-2.76v-62.5c0-1.04-.51-2-1.36-2.58h0ZM65.19,22.61c3.84-1.04,7.04.6,8.56,1.63v57.88c-3.02.23-7.01,1.09-11.01,3.55-.91.56-1.74,1.16-2.51,1.78-.4.32-.73.66-1.1,1-.34.3-.7.6-1,.92V29.47c.5-1.38,2.38-5.6,7.07-6.86h0ZM33.12,24.37c1.84-1.09,5.74-2.85,10.44-1.73,5.6,1.32,7.77,5.59,8.31,6.89v60.57c-.19-.19-.4-.37-.6-.56-.12-.12-.24-.23-.37-.34-.64-.57-1.34-1.14-2.09-1.68-.14-.1-.29-.2-.43-.3-.81-.56-1.66-1.11-2.61-1.62-4.63-2.51-9.24-3.31-12.65-3.5V24.37h0ZM17.5,95.44v-55.38c2.34-1.42,5.5-2.95,9.38-3.91v49.07c0,.86.35,1.68.98,2.27.62.59,1.46.88,2.32.85,2.54-.14,7.58.03,12.62,2.76.71.38,1.35.79,1.96,1.21.17.12.33.24.49.36.16.12.3.24.45.36-2.78-.82-5.9-1.41-9.33-1.55-7.84-.32-14.32,1.75-18.88,3.97h0ZM92.5,95.44c-4.24-2.06-10.12-4-17.24-4-.54,0-1.09.01-1.64.04-4.01.18-7.59.94-10.7,1.99.25-.25.52-.49.79-.73.18-.15.33-.3.52-.46.55-.45,1.15-.88,1.8-1.27,4.27-2.64,8.52-2.8,10.66-2.66.86.07,1.71-.25,2.34-.84.63-.59.99-1.41.99-2.28v-49.69c5.47.8,9.79,2.87,12.5,4.52v55.39h0Z"/>
</svg>