<?xml version="1.0" encoding="UTF-8"?>
<svg id="Layer_1" xmlns="http://www.w3.org/2000/svg" version="1.1" viewBox="0 0 110 135">
  <!-- Generator: Adobe Illustrator 29.8.3, SVG Export Plug-In . SVG Version: 2.1.1 Build 3)  -->
  <path d="M84.72,24h-14.4c-1.93,0-3.5,1.57-3.5,3.5s1.57,3.5,3.5,3.5h8.73l-26.99,26.99c-1.37,1.37-1.37,3.58,0,4.95.68.68,1.58,1.03,2.47,1.03s1.79-.34,2.47-1.03l26.99-26.99v7.8c0,1.93,1.57,3.5,3.5,3.5s3.5-1.57,3.5-3.5v-13.47c0-3.46-2.82-6.28-6.28-6.28h.01Z"/>
  <path d="M87.5,54.64c-1.93,0-3.5,1.57-3.5,3.5v20.24c0,5.85-4.76,10.62-10.62,10.62h-36.76c-5.85,0-10.62-4.76-10.62-10.62v-36.76c0-5.85,4.76-10.62,10.62-10.62h20.24c1.93,0,3.5-1.57,3.5-3.5s-1.57-3.5-3.5-3.5h-20.24c-9.71,0-17.62,7.9-17.62,17.62v36.77c0,9.71,7.9,17.62,17.62,17.62h36.77c9.71,0,17.62-7.9,17.62-17.62v-20.24c0-1.93-1.57-3.5-3.5-3.5h-.01Z"/>
</svg>